<svg width="800" height="800" viewBox="0 0 800 800" fill="none" xmlns="http://www.w3.org/2000/svg">
<g clip-path="url(#clip0_1_2)">
<g filter="url(#filter0_d_1_2)">
<path d="M500 733.4V566.733C500 552 496.717 538.033 490.967 525.417C504.717 522.633 518.467 519.45 532.167 515.4C574.283 502.967 634.733 451.417 652.6 401.017C672.4 345.083 672.4 288.35 652.6 232.417L652.583 232.4C649.033 222.35 643.633 212.217 635.95 201.267C650.083 148.7 640.167 104.733 639.7 102.683L633.617 76.6167L606.85 76.9334C604.35 76.9667 548.85 77.9834 494.783 109.517C432.203 97.2834 367.847 97.2834 305.267 109.517C251.217 77.9834 195.717 76.9667 193.2 76.9334L166.4 76.6167L160.317 102.683C159.85 104.733 149.933 148.7 164.067 201.267C156.383 212.217 150.983 222.367 147.417 232.417C127.633 288.35 127.633 345.083 147.433 401.033C165.267 451.417 225.717 502.967 267.85 515.4C281.55 519.45 295.3 522.633 309.05 525.417C303.095 538.377 300.008 552.47 300 566.733V588.083C298.967 588.683 297.883 589.167 296.883 589.883C292.067 593.4 249.067 622.667 205.133 591.383C189.633 575.617 182.033 564.067 174.7 552.9C158.233 527.9 144.017 509.8 98.2333 486.9C90.3233 482.946 81.1665 482.296 72.7773 485.094C64.3882 487.891 57.4539 493.907 53.5 501.817C49.5461 509.727 48.8963 518.884 51.6938 527.273C54.4912 535.662 60.5066 542.596 68.4167 546.55C101.6 563.133 107.433 571.967 119 589.567C127.583 602.583 138.25 618.8 159.75 640.3L163.333 643.4C191.533 664.567 220.783 672.117 247.55 672.117C265.448 672.023 283.195 668.826 300 662.667V733.55L500 733.4Z" fill="white"/>
<path d="M320 713.535V662.667V634.036L293.118 643.888C278.499 649.246 263.062 652.03 247.493 652.117C224.879 652.106 200.144 645.841 175.877 627.806L173.389 625.654C153.741 605.922 144.043 591.214 135.802 578.716L135.714 578.582L135.697 578.557L135.288 577.935C129.787 569.561 124.252 561.134 115.348 552.952C106.294 544.631 94.6349 537.294 77.3589 528.66L320 713.535ZM320 713.535L480 713.415V566.733C480 555.007 477.393 543.859 472.768 533.711L462.33 510.808L486.999 505.814C500.399 503.102 513.54 500.051 526.497 496.221L526.504 496.218C543.66 491.154 566.695 477.213 587.957 457.708C609.169 438.249 626.289 415.38 633.749 394.334C651.742 343.5 652.013 292.272 634.561 241.426L633.725 239.061C630.906 231.079 626.457 222.558 619.578 212.754L614.209 205.102L616.636 196.074C629.339 148.828 620.643 109.096 620.213 107.184C620.206 107.155 620.202 107.135 620.199 107.123L620.199 107.123L617.791 96.8053L607.117 96.9316C607.113 96.9316 607.11 96.9317 607.105 96.9317C605.524 96.9542 554.328 97.9417 504.859 126.793L498.346 130.592L490.946 129.145C430.9 117.407 369.15 117.407 309.104 129.145L301.702 130.592L295.188 126.792C245.737 97.9414 194.541 96.9543 192.946 96.9318C192.942 96.9317 192.939 96.9317 192.935 96.9316L182.226 96.8051L179.807 107.169C179.422 108.876 170.643 148.697 183.381 196.074L185.808 205.102L180.438 212.754C173.57 222.544 169.111 231.089 166.268 239.097C148.015 290.71 148.016 342.73 166.287 394.36L320 713.535ZM273.511 496.218L273.52 496.221C286.477 500.051 299.618 503.102 313.018 505.814L337.765 510.824L327.224 533.767C322.471 544.111 320.007 555.36 320 566.745V588.083V599.597L310.043 605.379C309.496 605.697 309.005 605.963 308.676 606.139C308.597 606.182 308.513 606.227 308.436 606.268L308.243 606.37C308.199 606.394 308.161 606.414 308.127 606.433C303.809 609.507 289.726 618.707 270.129 623.182C248.998 628.006 221.117 627.317 193.533 607.675L192.102 606.657L190.871 605.404C173.995 588.238 165.547 575.397 157.987 563.886C149.988 551.742 143.381 542.606 133.861 533.777C124.311 524.92 111.044 515.67 89.2911 504.79C86.1256 503.207 82.4612 502.947 79.104 504.067C75.7468 505.186 72.9718 507.593 71.3895 510.759C69.8073 513.924 69.5472 517.589 70.6667 520.946C71.786 524.303 74.1926 527.077 77.3573 528.66L273.511 496.218ZM273.511 496.218C256.347 491.153 233.308 477.211 212.049 457.71M273.511 496.218L212.049 457.71M212.049 457.71C190.84 438.254 173.732 415.392 166.288 394.361L212.049 457.71Z" stroke="white" stroke-width="40"/>
</g>
</g>
<defs>
<filter id="filter0_d_1_2" x="45.9815" y="76.6167" width="625.468" height="664.933" filterUnits="userSpaceOnUse" color-interpolation-filters="sRGB">
<feFlood flood-opacity="0" result="BackgroundImageFix"/>
<feColorMatrix in="SourceAlpha" type="matrix" values="0 0 0 0 0 0 0 0 0 0 0 0 0 0 0 0 0 0 127 0" result="hardAlpha"/>
<feOffset dy="4"/>
<feGaussianBlur stdDeviation="2"/>
<feComposite in2="hardAlpha" operator="out"/>
<feColorMatrix type="matrix" values="0 0 0 0 0 0 0 0 0 0 0 0 0 0 0 0 0 0 0.25 0"/>
<feBlend mode="normal" in2="BackgroundImageFix" result="effect1_dropShadow_1_2"/>
<feBlend mode="normal" in="SourceGraphic" in2="effect1_dropShadow_1_2" result="shape"/>
</filter>
<clipPath id="clip0_1_2">
<rect width="800" height="800" fill="white"/>
</clipPath>
</defs>
</svg>
