<svg width="722" height="722" viewBox="0 0 722 722" fill="none" xmlns="http://www.w3.org/2000/svg">
<g clip-path="url(#clip0_19_64)">
<path d="M590.689 212.456C590.906 186.848 586.136 161.444 576.646 137.659C567.966 115.862 555.522 95.756 540.044 78.0261C498.902 30.8916 436.326 0.564368 366.025 0.00790613C338.052 -0.215411 311.225 4.29851 286.422 12.7406C233.338 30.811 189.528 66.8821 163.598 113.079C163.598 113.079 134.083 168.345 134.083 192.54C134.083 216.735 156.748 219.331 156.748 219.331L264.987 229.094L270.358 229.581C270.358 225.298 270.921 221.117 271.994 217.079C273.18 212.651 274.947 208.4 277.248 204.434C281.267 197.46 286.905 191.171 293.795 185.848C308.212 174.719 328.102 167.836 350.067 167.836C391.622 167.836 425.75 192.471 429.444 223.911C429.703 226.117 429.811 228.338 429.766 230.559V230.562C426.826 233.125 423.842 235.651 420.829 238.133H420.822C408.193 248.538 394.958 258.183 381.185 267.018C367.596 275.74 353.508 283.659 338.993 290.734C312.11 303.843 283.875 313.975 254.791 320.951V394.924C258.072 396.622 261.403 398.244 264.782 399.789C294.348 413.324 327.56 421.044 362.697 421.319H362.778C378.45 421.45 394.097 420.066 409.502 417.186C413.127 419.167 424.919 426.66 431.97 443.695C433.266 446.825 434.4 450.273 435.297 454.066V454.07C435.378 454.407 435.455 454.747 435.528 455.087V455.095C437.252 475.926 423.143 535.138 353.922 535.138C284.694 535.138 265.302 468.366 265.302 468.366L262.834 468.677L245.368 470.895C242.172 471.3 238.976 471.705 235.78 472.111C204.435 476.079 158.919 481.838 155.452 482.241C152.534 482.577 145.776 485.221 140.259 494.113C135.709 501.453 132 513.059 132 531.14C132 569.4 175.876 627.887 179.651 632.844L179.691 632.899L179.731 632.954L179.907 633.181C220.192 686.854 286.718 721.915 361.962 721.915C484.896 721.915 584.554 628.33 584.554 512.89C584.554 456.307 560.607 404.969 521.71 367.335C520.795 366.449 519.876 365.574 518.942 364.706C562.694 326.666 590.217 272.612 590.689 212.456Z" fill="#CBD3D9"/>
<path d="M530.409 497.558L530.423 496.83C530.434 496.269 530.453 495.717 530.46 495.153C530.471 494.322 530.478 493.487 530.478 492.649C530.478 451.167 515.622 413.415 491.328 385.222C467.005 400.565 439.306 411.61 409.499 417.193C413.123 419.17 424.919 426.668 431.97 443.702C433.262 446.828 434.401 450.277 435.294 454.073L435.528 455.091V455.102C436.136 457.844 436.616 460.758 436.945 463.863C438.285 476.544 436.641 488.175 433.943 497.931C422.726 515.658 395.924 548.24 350.481 548.24C289.062 548.24 266.045 499.637 265.317 498.074C265.314 498.063 265.311 498.052 265.306 498.041V498.034H265.302C265.075 498.093 251.892 501.519 243.523 516.485C242.028 519.178 240.792 522.007 239.833 524.935V524.942C237.948 530.656 236.765 537.539 236.765 545.806C236.765 586.398 272.712 656.622 366.11 656.622C388.687 656.622 408.862 651.544 426.478 643.853L426.493 643.845C434.199 640.426 527.462 598.563 530.409 497.558Z" fill="url(#paint0_linear_19_64)"/>
<path d="M521.71 367.339C520.796 366.452 519.874 365.574 518.942 364.706C510.278 372.242 501.046 379.1 491.328 385.219C515.626 413.411 530.478 451.163 530.478 492.645C530.478 493.092 530.474 493.527 530.463 493.959L530.456 495.149C530.449 495.709 530.434 496.269 530.419 496.826L530.405 497.554C527.461 598.563 434.195 640.422 426.489 643.842L426.475 643.849C408.858 651.541 388.683 656.615 366.106 656.615C272.708 656.615 236.761 586.394 236.761 545.802C236.761 537.535 237.944 530.653 239.829 524.938V524.931C240.873 521.768 242.132 518.967 243.519 516.481C251.888 501.512 265.071 498.085 265.298 498.03L265.302 468.37L262.834 468.681L245.368 470.895L238.032 471.825L235.78 472.111C209.007 475.515 182.231 478.892 155.452 482.244C152.534 482.581 145.776 485.224 140.259 494.117C135.709 501.457 132 513.059 132 531.14C132 569.364 175.785 627.767 179.636 632.83L179.651 632.844L179.691 632.903L179.731 632.958L179.907 633.181C220.192 686.858 286.718 721.915 361.962 721.915C484.896 721.915 584.554 628.334 584.554 512.894C584.554 456.307 560.607 404.969 521.71 367.339Z" fill="url(#paint1_linear_19_64)"/>
<path d="M433.946 497.924C422.729 515.65 395.931 548.233 350.488 548.233C288.062 548.233 265.309 498.027 265.309 498.027V468.366C265.309 468.366 284.697 535.134 353.929 535.134C423.15 535.134 437.256 475.922 435.531 455.095C436.139 457.837 436.622 460.751 436.948 463.855C438.288 476.541 436.644 488.168 433.946 497.924Z" fill="url(#paint2_linear_19_64)"/>
<path d="M265.313 498.063L265.298 498.023H265.295C263.757 498.47 262.278 499.103 260.843 499.809C259.411 500.525 258.026 501.33 256.695 502.218C252.707 504.903 249.231 508.281 246.434 512.191C245.504 513.49 244.625 514.823 243.853 516.225C242.283 519.009 241 521.946 240.023 524.989L240.034 524.924V524.96L240.023 524.993C238.153 530.755 237.285 536.811 237.098 542.858C237.01 545.886 237.073 548.917 237.347 551.93C237.614 554.947 238.043 557.945 238.614 560.918C239.772 566.865 241.435 572.702 243.585 578.366C245.729 584.029 248.317 589.514 251.325 594.77C257.316 605.304 264.909 614.841 273.832 623.04C274.396 623.545 274.938 624.069 275.512 624.559L277.226 626.042C278.39 627.005 279.543 627.986 280.74 628.901C281.919 629.846 283.142 630.732 284.354 631.636C284.969 632.075 285.591 632.504 286.206 632.939C286.517 633.155 286.825 633.375 287.136 633.587L288.08 634.213C293.116 637.556 298.394 640.519 303.87 643.077C314.823 648.173 326.509 651.65 338.426 653.635C344.39 654.621 350.404 655.273 356.441 655.59C362.478 655.904 368.537 655.952 374.563 655.604C380.594 655.252 386.598 654.529 392.541 653.441C398.488 652.364 404.36 650.915 410.125 649.102C415.892 647.302 421.55 645.167 427.068 642.707C432.562 640.182 437.921 637.372 443.121 634.287C453.552 628.136 463.415 621.071 472.595 613.174C481.783 605.283 490.165 596.5 497.618 586.954C501.317 582.166 504.752 577.18 507.908 572.018C511.046 566.844 513.879 561.493 516.394 555.99C521.416 544.961 525.074 533.361 527.286 521.446C528.395 515.497 529.145 509.478 529.555 503.434L529.636 502.303L529.691 501.168L529.797 498.898C529.834 498.144 529.87 497.386 529.885 496.628C529.903 495.87 529.925 495.113 529.929 494.358L529.94 493.22C529.951 492.84 529.95 492.461 529.936 492.081L529.892 489.812L529.804 485.265C529.297 473.141 527.513 461.104 524.481 449.355C524.148 447.876 523.68 446.429 523.266 444.972C522.834 443.519 522.424 442.058 521.974 440.612L520.502 436.307L519.766 434.154C519.499 433.444 519.217 432.741 518.942 432.035L517.28 427.799L517.072 427.268L516.841 426.752L516.38 425.712L515.454 423.633L514.531 421.55C514.37 421.209 514.234 420.85 514.059 420.517L513.554 419.496L511.525 415.425L511.017 414.404L510.467 413.408L509.362 411.416L508.26 409.428C507.89 408.762 507.531 408.092 507.125 407.455L504.742 403.575L504.145 402.604L503.848 402.121L503.53 401.649L502.256 399.764C501.399 398.508 500.568 397.237 499.693 395.996L496.984 392.335C496.527 391.728 496.087 391.113 495.622 390.509L494.187 388.74L491.313 385.208L494.231 388.707L495.692 390.457C496.16 391.05 496.614 391.666 497.076 392.266L499.832 395.894C500.722 397.128 501.571 398.391 502.439 399.635L503.739 401.513L504.061 401.982L504.365 402.462L504.969 403.432L507.389 407.294C507.806 407.931 508.165 408.601 508.542 409.26L509.669 411.248L510.793 413.232L511.353 414.228L511.873 415.242L513.942 419.309L514.461 420.323C514.637 420.66 514.784 421.015 514.941 421.359L515.886 423.439L516.83 425.514L517.306 426.554L517.54 427.074L517.756 427.601L519.459 431.837C519.741 432.547 520.033 433.246 520.308 433.957L521.066 436.113L522.581 440.418C523.05 441.868 523.471 443.329 523.918 444.786C524.35 446.246 524.837 447.692 525.181 449.175L526.312 453.601L526.594 454.711C526.689 455.08 526.755 455.454 526.839 455.824L527.3 458.064C527.604 459.558 527.93 461.044 528.216 462.541L528.94 467.051L529.307 469.307C529.372 469.68 529.409 470.061 529.453 470.438L529.581 471.573L530.105 476.112L530.236 477.247L530.317 478.386L530.478 480.666C530.577 482.186 530.709 483.705 530.786 485.228L530.903 489.797L530.958 492.081C530.972 492.458 530.976 492.843 530.969 493.223L530.965 494.366C530.969 495.127 530.947 495.889 530.932 496.65C530.925 497.415 530.892 498.177 530.859 498.935L530.767 501.219L530.716 502.361L530.639 503.503C530.258 509.592 529.523 515.654 528.439 521.658C527.352 527.658 525.902 533.596 524.093 539.428C522.285 545.26 520.14 550.986 517.61 556.543C515.087 562.102 512.244 567.509 509.095 572.739C505.923 577.954 502.471 582.993 498.752 587.833C491.273 597.485 482.84 606.357 473.58 614.316C468.962 618.299 464.167 622.072 459.211 625.625C454.259 629.182 449.15 632.515 443.901 635.615C438.656 638.735 433.251 641.578 427.708 644.131C422.129 646.611 416.409 648.764 410.579 650.578C398.911 654.212 386.843 656.407 374.643 657.113C373.116 657.182 371.594 657.252 370.071 657.299C368.544 657.314 367.017 657.358 365.494 657.347L363.206 657.318C362.445 657.307 361.683 657.307 360.922 657.27L358.638 657.186L357.495 657.145L356.353 657.076C350.261 656.741 344.193 656.067 338.177 655.055C326.15 653.016 314.351 649.468 303.292 644.281C292.212 639.087 282 632.212 273.019 623.9C268.541 619.749 264.392 615.254 260.612 610.458C256.836 605.66 253.44 600.575 250.453 595.25C247.456 589.931 244.885 584.383 242.762 578.659C240.629 572.94 238.995 567.047 237.878 561.046C237.325 558.044 236.927 555.017 236.685 551.974C236.447 548.932 236.388 545.878 236.509 542.829C236.754 536.741 237.684 530.649 239.621 524.854L239.61 524.92V524.883L239.621 524.854C240.642 521.801 241.942 518.835 243.556 516.053C244.351 514.651 245.244 513.315 246.192 512.015C247.14 510.716 248.162 509.471 249.263 508.303C251.46 505.953 253.931 503.866 256.618 502.112C257.966 501.241 259.357 500.439 260.806 499.747C262.245 499.038 263.743 498.458 265.284 498.012L265.313 498.063Z" fill="url(#paint3_linear_19_64)"/>
<path d="M510.413 157.483C510.413 221.333 468.378 272.444 418.402 310.645C407.196 319.176 395.594 327.173 383.634 334.61C367.19 344.875 350.723 353.837 335.321 361.485C315.086 371.534 294.35 380.542 273.195 388.473C261.839 392.709 254.986 394.865 254.799 394.924H254.795V320.951C266.293 318.195 277.666 314.941 288.882 311.198C306.019 305.488 322.761 298.651 338.997 290.734C358.049 281.449 376.359 270.713 393.764 258.62C403.062 252.164 412.092 245.329 420.83 238.133H420.833C423.848 235.652 426.827 233.128 429.77 230.563C429.781 230.233 429.781 229.907 429.781 229.581C429.781 227.667 429.671 225.778 429.447 223.911C425.753 192.471 391.626 167.836 350.071 167.836C328.109 167.836 308.216 174.719 293.802 185.848C286.909 191.171 281.271 197.46 277.251 204.434C274.951 208.4 273.184 212.651 271.998 217.079C270.912 221.158 270.362 225.361 270.361 229.581L264.991 229.094L156.755 219.331C156.755 219.331 134.087 216.735 134.087 192.54C134.087 168.345 163.601 113.079 163.601 113.079C189.535 66.8822 233.342 30.811 286.426 12.7407C349.277 -0.727905 418.563 19.2938 463.187 59.2346C487.001 80.5522 503.79 107.533 508.831 138.128C509.871 144.435 510.413 150.89 510.413 157.483Z" fill="url(#paint4_linear_19_64)"/>
<path d="M590.693 212.456C590.221 272.612 562.698 326.666 518.946 364.706C510.282 372.24 501.051 379.097 491.335 385.215C467.008 400.558 439.313 411.603 409.506 417.186C394.101 420.066 378.453 421.45 362.782 421.319H362.701C327.564 421.044 294.352 413.324 264.786 399.789C261.417 398.25 258.087 396.628 254.799 394.924C254.982 394.865 261.839 392.709 273.195 388.473C294.35 380.542 315.086 371.534 335.321 361.485C350.723 353.837 367.189 344.875 383.634 334.61C395.594 327.173 407.196 319.176 418.402 310.645C468.378 272.444 510.409 221.333 510.409 157.483C510.409 150.89 509.871 144.432 508.831 138.128C503.79 107.533 487.001 80.5521 463.186 59.2345C418.56 19.2937 349.273 -0.731614 286.426 12.7406C311.228 4.29851 338.056 -0.215411 366.029 0.00790613C436.33 0.564368 498.906 30.8916 540.048 78.0261C555.526 95.756 567.97 115.862 576.65 137.659C586.14 161.444 590.91 186.848 590.693 212.456Z" fill="url(#paint5_linear_19_64)"/>
<path d="M502.629 377.608C498.942 380.255 495.176 382.791 491.335 385.211C467.008 400.558 439.313 411.599 409.506 417.182C394.101 420.062 378.453 421.447 362.782 421.319H362.701C327.564 421.041 294.352 413.324 264.786 399.785C261.417 398.246 258.087 396.624 254.799 394.92C254.982 394.862 261.839 392.709 273.195 388.47C294.35 380.538 315.086 371.53 335.321 361.481C363.766 381.865 397.894 392.801 432.889 392.745C452.709 392.745 471.727 389.308 489.384 382.996C493.874 381.391 498.293 379.593 502.629 377.608Z" fill="#CBD3D9"/>
<path d="M364.729 141.291H351.875C306.853 141.291 270.357 169.564 270.357 204.438V229.585C270.357 225.302 270.918 221.121 271.99 217.083C273.178 212.655 274.946 208.403 277.247 204.438C281.263 197.464 286.905 191.175 293.795 185.852C308.211 174.722 328.101 167.84 350.063 167.84C391.618 167.84 425.746 192.474 429.443 223.911C429.703 226.118 429.81 228.34 429.765 230.563C462.582 177.164 408.609 141.291 364.729 141.291Z" fill="url(#paint6_linear_19_64)"/>
<path d="M286.415 12.7406C292.367 11.4582 298.373 10.4395 304.415 9.68748C310.468 8.99699 316.547 8.56573 322.636 8.39507C328.731 8.25595 334.827 8.40607 340.908 8.77582L345.465 9.1273C346.227 9.17855 346.985 9.26272 347.743 9.34326L350.016 9.58492L352.289 9.82657L354.555 10.1303L356.822 10.4342C357.579 10.5367 358.334 10.6319 359.084 10.7637C383.184 14.4869 406.683 22.2921 428.151 33.9412C430.849 35.3689 433.471 36.9394 436.106 38.477L439.994 40.9005L440.968 41.5083L441.92 42.1416L443.827 43.4083L445.735 44.6786L447.602 46.0076L449.469 47.3328L450.402 47.9991L451.314 48.691L454.968 51.4623L458.53 54.3471L459.419 55.072L460.283 55.8188L462.019 57.3161C462.593 57.8177 463.179 58.312 463.75 58.8208L465.434 60.3767L467.118 61.9326L467.96 62.7087C468.238 62.9723 468.506 63.2468 468.777 63.5141L472.031 66.7468C476.288 71.1422 480.302 75.7654 484.057 80.5961C487.776 85.4626 491.187 90.5576 494.268 95.8511L496.519 99.8562L498.595 103.957L499.111 104.978L499.587 106.025L500.532 108.119L501.476 110.217L502.325 112.351L503.175 114.485L503.599 115.554L503.976 116.638L505.477 120.987L506.773 125.399L507.096 126.501C507.198 126.87 507.279 127.244 507.374 127.617L507.912 129.85L508.45 132.087C508.611 132.834 508.743 133.588 508.889 134.342L509.318 136.601C509.464 137.352 509.611 138.102 509.724 138.863C510.686 144.923 511.172 151.048 511.178 157.183C511.163 158.717 511.119 160.247 511.09 161.777L511.064 162.923L511.053 163.498L511.016 164.069L510.874 166.364C510.775 167.891 510.709 169.421 510.526 170.941C510.365 172.464 510.226 173.99 510.043 175.509L509.384 180.056C509.325 180.433 509.285 180.814 509.212 181.191L509.003 182.319L508.586 184.577C508.439 185.328 508.311 186.086 508.157 186.833L507.648 189.073L507.143 191.314C507.052 191.687 506.978 192.064 506.88 192.43L506.583 193.539C506.184 195.018 505.803 196.501 505.39 197.973L504.035 202.362C502.138 208.182 499.921 213.892 497.394 219.466C494.838 225.024 492.005 230.451 488.904 235.724C485.81 240.996 482.465 246.116 478.881 251.067C477.124 253.568 475.245 255.977 473.389 258.404L470.527 261.977C470.054 262.577 469.56 263.156 469.066 263.742L467.59 265.492L466.111 267.238L464.592 268.951L463.073 270.664L462.315 271.521L461.539 272.363L458.427 275.72L455.246 279.011C450.976 283.37 446.576 287.599 442.052 291.693C437.522 295.774 432.889 299.741 428.159 303.587C425.775 305.487 423.403 307.406 420.976 309.251C418.568 311.118 416.134 312.952 413.676 314.753C408.765 318.362 403.778 321.865 398.717 325.26C388.585 332.027 378.212 338.426 367.618 344.443C362.325 347.455 356.986 350.382 351.601 353.226C346.213 356.059 340.783 358.812 335.314 361.485C340.743 358.735 346.143 355.92 351.488 353.013C356.844 350.121 362.152 347.145 367.413 344.081C377.927 337.956 388.243 331.487 398.285 324.619C403.311 321.194 408.264 317.662 413.141 314.028C415.576 312.209 417.999 310.367 420.386 308.485C422.792 306.626 425.142 304.7 427.507 302.789C432.198 298.922 436.793 294.941 441.29 290.851C445.776 286.75 450.138 282.516 454.371 278.155L457.519 274.86L460.598 271.503L461.367 270.664L462.117 269.808L463.622 268.094L465.123 266.381L466.587 264.635L468.048 262.889C468.535 262.307 469.026 261.728 469.49 261.128L472.328 257.566C474.165 255.149 476.025 252.748 477.761 250.258C481.305 245.33 484.611 240.234 487.667 234.989C490.728 229.751 493.522 224.363 496.04 218.844C498.524 213.314 500.711 207.654 502.589 201.89L503.929 197.545C504.335 196.088 504.712 194.619 505.104 193.155L505.397 192.057C505.499 191.691 505.569 191.317 505.657 190.951L506.155 188.736L506.656 186.518C506.806 185.778 506.934 185.032 507.074 184.288L507.484 182.051L507.692 180.935C507.766 180.565 507.802 180.188 507.861 179.811L508.505 175.315C508.684 173.811 508.82 172.302 508.977 170.794C509.16 169.293 509.223 167.778 509.318 166.266L509.457 163.996L509.494 163.432L509.504 162.861L509.53 161.726C509.556 160.21 509.596 158.698 509.611 157.183C509.594 151.129 509.115 145.086 508.179 139.105C508.069 138.355 507.923 137.615 507.784 136.868L507.363 134.639C507.216 133.899 507.088 133.152 506.931 132.413L506.4 130.209L505.866 128.002C505.774 127.635 505.697 127.266 505.595 126.9L505.28 125.809L504.002 121.452L502.527 117.158C502.402 116.803 502.285 116.44 502.157 116.085L501.736 115.031L500.901 112.918L500.059 110.81L499.129 108.741L498.196 106.673L497.727 105.637L497.218 104.623L495.172 100.566L492.95 96.6053C489.899 91.3697 486.533 86.3243 482.871 81.4967C479.166 76.6999 475.203 72.1083 470.999 67.7425L467.781 64.5282C467.514 64.2609 467.25 63.9864 466.975 63.7265L466.144 62.9503L464.479 61.4017L462.817 59.8531C462.249 59.3479 461.671 58.8574 461.1 58.3595L459.383 56.8659L458.526 56.119L457.647 55.4016L454.118 52.5277L450.501 49.7674L449.597 49.079L448.674 48.4164L446.826 47.0948L444.973 45.7659L443.088 44.4956L441.199 43.2252L440.254 42.5919L439.295 41.9842L435.444 39.557C432.834 38.0158 430.234 36.4452 427.558 35.0138L425.567 33.9155C424.9 33.553 424.216 33.2163 423.546 32.8648L421.521 31.8214C420.844 31.481 420.178 31.1186 419.489 30.7964L415.382 28.8304C414.701 28.4936 413.998 28.2008 413.31 27.8896L411.227 26.967C410.531 26.6631 409.847 26.341 409.144 26.0482L407.042 25.1805L404.937 24.3129C404.586 24.1701 404.234 24.02 403.883 23.8845L402.818 23.4818L398.56 21.8637L394.262 20.3553C392.838 19.8355 391.381 19.3998 389.938 18.9349C388.489 18.4736 387.046 17.9977 385.586 17.595C384.125 17.1777 382.668 16.742 381.207 16.3357L376.796 15.1935L375.694 14.908L374.584 14.6553L372.366 14.1428L370.147 13.6339C369.404 13.4728 368.657 13.33 367.914 13.1762L365.681 12.7297C364.934 12.5869 364.195 12.4148 363.444 12.2977L358.952 11.5215C358.205 11.3824 357.455 11.2799 356.701 11.1737L354.446 10.8479L352.191 10.5222L349.924 10.2622L347.662 9.99863C346.908 9.91443 346.154 9.81923 345.396 9.76066L340.856 9.36896C334.793 8.93035 328.714 8.74592 322.636 8.81615C316.555 8.9333 310.482 9.292 304.434 9.92534C298.397 10.5989 292.382 11.5362 286.415 12.7406Z" fill="url(#paint7_linear_19_64)"/>
</g>
<defs>
<linearGradient id="paint0_linear_19_64" x1="320.787" y1="439.62" x2="498.939" y2="627.411" gradientUnits="userSpaceOnUse">
<stop stop-color="#ADB3B8"/>
<stop offset="1" stop-color="#F0F8FF"/>
</linearGradient>
<linearGradient id="paint1_linear_19_64" x1="286.598" y1="395.865" x2="486.697" y2="707.696" gradientUnits="userSpaceOnUse">
<stop offset="0.382" stop-color="#F0F8FF"/>
<stop offset="0.886" stop-color="#BDC4C9"/>
</linearGradient>
<linearGradient id="paint2_linear_19_64" x1="265.309" y1="501.666" x2="437.424" y2="501.666" gradientUnits="userSpaceOnUse">
<stop stop-color="#DAE2E8"/>
<stop offset="1" stop-color="#BDC4C9"/>
</linearGradient>
<linearGradient id="paint3_linear_19_64" x1="334.809" y1="425.61" x2="449.612" y2="622.517" gradientUnits="userSpaceOnUse">
<stop offset="0.524" stop-color="#B9BFC4"/>
<stop offset="1" stop-color="#F0F8FF"/>
</linearGradient>
<linearGradient id="paint4_linear_19_64" x1="169.521" y1="344.721" x2="507.107" y2="-24.5935" gradientUnits="userSpaceOnUse">
<stop stop-color="#B1B8BD"/>
<stop offset="1" stop-color="#DFE7ED"/>
</linearGradient>
<linearGradient id="paint5_linear_19_64" x1="422.748" y1="0.000584239" x2="422.748" y2="421.326" gradientUnits="userSpaceOnUse">
<stop stop-color="#F0F8FF"/>
<stop offset="1" stop-color="#E9F1F7"/>
</linearGradient>
<linearGradient id="paint6_linear_19_64" x1="270.357" y1="185.925" x2="439.687" y2="185.925" gradientUnits="userSpaceOnUse">
<stop stop-color="#B1B8BD"/>
<stop offset="1" stop-color="#DDE5EB"/>
</linearGradient>
<linearGradient id="paint7_linear_19_64" x1="398.794" y1="8.34382" x2="398.794" y2="361.485" gradientUnits="userSpaceOnUse">
<stop stop-color="#B4BABF"/>
<stop offset="1" stop-color="#F0F8FF"/>
</linearGradient>
<clipPath id="clip0_19_64">
<rect width="721.91" height="721.91" fill="white"/>
</clipPath>
</defs>
</svg>
