<svg width="800" height="800" viewBox="0 0 800 800" fill="none" xmlns="http://www.w3.org/2000/svg">
<path d="M416.149 439.613C417.642 412.987 430.68 389.529 450.35 372.901C469.64 356.567 495.604 346.584 523.934 346.584C552.235 346.584 578.199 356.567 597.503 372.901C617.16 389.529 630.198 412.987 631.704 439.585C633.197 466.943 622.2 492.358 602.91 511.197C583.24 530.361 555.262 542.385 523.934 542.385C492.605 542.385 464.571 530.361 444.915 511.197C425.611 492.358 414.643 466.943 416.149 439.613Z" fill="#EFF8FF"/>
<path d="M245.034 494.31C245.217 504.752 248.547 525.043 253.542 540.889C264.04 574.429 281.848 605.458 306.626 632.804C332.053 660.912 363.364 683.489 399.529 699.518C437.543 716.352 478.731 724.931 521.514 724.861C564.226 724.804 605.415 716.056 643.428 699.095C679.593 682.91 710.876 660.235 736.261 632.113C761.025 604.654 778.804 573.568 789.33 540.028C794.622 523.081 797.966 505.881 799.307 488.623C800.619 471.62 800.069 454.589 797.656 437.572C792.943 404.412 781.471 373.299 763.805 344.937C747.648 318.875 726.821 296.058 702.057 276.854L702.114 276.811L452.203 84.9232C451.978 84.7539 451.794 84.5705 451.554 84.4153C435.158 71.8287 407.586 71.8711 389.553 84.4858C371.322 97.2417 369.234 118.337 385.461 131.643L385.39 131.714L489.624 216.475L171.927 216.814H171.504C145.245 216.842 120.001 234.071 115.006 255.843C109.87 278.025 127.705 296.425 155.009 296.524L154.967 296.622L315.995 296.312L28.6498 516.873C28.2829 517.141 27.8878 517.423 27.5492 517.691C0.442988 538.447 -8.31961 572.962 8.75405 594.805C26.0817 617.014 62.9241 617.057 90.3125 594.932L247.136 466.583C247.136 466.583 244.85 483.911 245.034 494.31ZM648.014 552.332C615.701 585.252 570.463 603.92 521.514 604.019C472.494 604.103 427.256 585.605 394.943 552.741C379.154 536.726 367.555 518.298 360.401 498.67C353.388 479.381 350.665 458.907 352.471 438.249C354.178 418.057 360.189 398.796 369.784 381.37C379.21 364.24 392.192 348.761 408.221 335.666C439.631 310.07 479.62 296.213 521.443 296.157C563.309 296.1 603.27 309.83 634.708 335.342C650.709 348.38 663.677 363.802 673.103 380.904C682.74 398.317 688.709 417.507 690.487 437.755C692.265 458.385 689.541 478.831 682.528 498.134C675.36 517.818 663.804 536.246 648.014 552.332Z" fill="#EFF8FF"/>
</svg>
