<svg width="831" height="831" viewBox="0 0 831 831" fill="none" xmlns="http://www.w3.org/2000/svg">
<path d="M434.25 42.5796L729.084 212.802C740.686 219.501 747.834 231.88 747.834 245.278V585.722C747.834 599.12 740.686 611.499 729.084 618.198L434.25 788.42C422.647 795.119 408.353 795.119 396.75 788.42L101.916 618.198C90.3139 611.499 83.1664 599.12 83.1664 585.722V245.278C83.1664 231.88 90.3139 219.501 101.916 212.802L396.75 42.5796C408.353 35.8809 422.647 35.8809 434.25 42.5796Z" stroke="#EFF8FF" stroke-width="55"/>
<path d="M202.999 547V277.5H378.944V317.155H252.279V391.075H367.394V429.575H252.279V507.345H378.944V547H202.999ZM412.487 547L496.802 410.71L411.332 277.5H467.927L528.372 371.44L583.812 277.5H639.252L554.937 413.02L641.177 547H584.582L523.367 451.905L467.927 547H412.487Z" fill="#EFF8FF"/>
<path d="M202.999 547H197.999V552H202.999V547ZM202.999 277.5V272.5H197.999V277.5H202.999ZM378.944 277.5H383.944V272.5H378.944V277.5ZM378.944 317.155V322.155H383.944V317.155H378.944ZM252.279 317.155V312.155H247.279V317.155H252.279ZM252.279 391.075H247.279V396.075H252.279V391.075ZM367.394 391.075H372.394V386.075H367.394V391.075ZM367.394 429.575V434.575H372.394V429.575H367.394ZM252.279 429.575V424.575H247.279V429.575H252.279ZM252.279 507.345H247.279V512.345H252.279V507.345ZM378.944 507.345H383.944V502.345H378.944V507.345ZM378.944 547V552H383.944V547H378.944ZM207.999 547V277.5H197.999V547H207.999ZM202.999 282.5H378.944V272.5H202.999V282.5ZM373.944 277.5V317.155H383.944V277.5H373.944ZM378.944 312.155H252.279V322.155H378.944V312.155ZM247.279 317.155V391.075H257.279V317.155H247.279ZM252.279 396.075H367.394V386.075H252.279V396.075ZM362.394 391.075V429.575H372.394V391.075H362.394ZM367.394 424.575H252.279V434.575H367.394V424.575ZM247.279 429.575V507.345H257.279V429.575H247.279ZM252.279 512.345H378.944V502.345H252.279V512.345ZM373.944 507.345V547H383.944V507.345H373.944ZM378.944 542H202.999V552H378.944V542ZM412.487 547L408.235 544.369L403.514 552H412.487V547ZM496.802 410.71L501.054 413.341L502.711 410.661L501.01 408.01L496.802 410.71ZM411.332 277.5V272.5H402.183L407.124 280.2L411.332 277.5ZM467.927 277.5L472.132 274.794L470.655 272.5H467.927V277.5ZM528.372 371.44L524.167 374.146L528.556 380.966L532.678 373.981L528.372 371.44ZM583.812 277.5V272.5H580.957L579.506 274.959L583.812 277.5ZM639.252 277.5L643.497 280.141L648.252 272.5H639.252V277.5ZM554.937 413.02L550.692 410.379L549.02 413.065L550.733 415.726L554.937 413.02ZM641.177 547V552H650.342L645.381 544.294L641.177 547ZM584.582 547L580.378 549.706L581.854 552H584.582V547ZM523.367 451.905L527.571 449.199L523.156 442.34L519.047 449.387L523.367 451.905ZM467.927 547V552H470.8L472.247 549.518L467.927 547ZM416.739 549.631L501.054 413.341L492.55 408.079L408.235 544.369L416.739 549.631ZM501.01 408.01L415.54 274.8L407.124 280.2L492.594 413.41L501.01 408.01ZM411.332 282.5H467.927V272.5H411.332V282.5ZM463.722 280.206L524.167 374.146L532.577 368.734L472.132 274.794L463.722 280.206ZM532.678 373.981L588.118 280.041L579.506 274.959L524.066 368.899L532.678 373.981ZM583.812 282.5H639.252V272.5H583.812V282.5ZM635.007 274.859L550.692 410.379L559.182 415.661L643.497 280.141L635.007 274.859ZM550.733 415.726L636.973 549.706L645.381 544.294L559.141 410.314L550.733 415.726ZM641.177 542H584.582V552H641.177V542ZM588.786 544.294L527.571 449.199L519.163 454.611L580.378 549.706L588.786 544.294ZM519.047 449.387L463.607 544.482L472.247 549.518L527.687 454.423L519.047 449.387ZM467.927 542H412.487V552H467.927V542Z" fill="#EFF8FF"/>
</svg>
