<svg width="800" height="800" viewBox="0 0 800 800" fill="none" xmlns="http://www.w3.org/2000/svg">
<g clip-path="url(#clip0_12_16)">
<path d="M450.899 3.27412C231.774 -24.7259 31.3741 129.949 3.27412 349.099C-24.7259 568.224 129.949 768.624 349.099 796.724C568.224 824.724 768.624 670.049 796.599 450.899C824.724 231.774 670.074 31.3741 450.899 3.27412ZM533.199 252.874C525.774 252.874 518.724 255.874 513.524 261.199L365.099 409.499L354.824 399.324L333.449 377.849C479.674 232.024 506.124 230.574 533.174 252.849L533.199 252.874ZM371.224 414.824L519.124 266.799C527.324 258.199 540.999 258.324 549.224 266.924C557.299 275.649 556.499 289.324 547.399 296.849L390.774 434.349L371.224 414.824ZM382.174 438.024L345.449 445.949C344.674 446.074 343.649 445.674 343.249 444.774C342.849 443.974 342.974 443.074 343.649 442.399L365.124 420.924L382.174 438.024ZM288.674 422.674L327.874 383.599L357.174 412.899L291.149 427.074C289.974 427.349 288.824 426.849 288.274 425.774C287.649 424.749 287.899 423.449 288.674 422.674ZM167.199 624.599C165.774 624.474 164.699 623.174 164.824 621.874C164.949 621.249 165.224 620.699 165.624 620.299H165.749L197.249 588.799L238.024 629.574L167.199 624.599ZM248.024 582.674C244.924 584.374 243.349 587.899 244.124 591.274L250.899 620.074C251.974 624.249 246.874 627.074 243.874 623.974H243.749L202.874 583.074L328.274 457.799L388.949 444.674L417.974 473.849C376.174 510.549 318.999 547.149 248.049 582.674H248.024ZM423.974 468.499L395.974 440.499L552.599 302.999C554.024 301.699 555.324 300.274 556.499 298.824C551.699 343.624 488.924 406.899 423.974 468.499ZM545.974 253.124H545.849C491.274 198.299 568.374 114.049 627.749 163.524L574.124 217.324C572.549 218.849 572.549 221.499 574.124 223.024L615.649 264.599C592.349 276.174 564.349 271.499 545.974 253.124ZM631.774 253.124C629.049 255.849 626.049 258.324 622.799 260.399L582.574 220.174L633.599 168.999C655.724 193.099 654.824 230.074 631.774 253.124ZM628.499 201.699C626.824 202.874 626.174 204.924 626.699 206.899C629.174 211.824 628.499 217.699 624.999 221.874C623.299 223.974 623.699 226.849 625.774 228.499C626.574 229.024 627.474 229.424 628.499 229.424C629.924 229.424 631.274 228.899 632.024 227.849C637.899 220.824 639.049 210.924 635.024 202.724C633.449 200.649 630.599 200.124 628.499 201.699Z" fill="#EFF8FF"/>
</g>
<defs>
<clipPath id="clip0_12_16">
<rect width="800" height="800" fill="white"/>
</clipPath>
</defs>
</svg>
