<svg width="800" height="800" viewBox="0 0 800 800" fill="none" xmlns="http://www.w3.org/2000/svg">
<g clip-path="url(#clip0_12_18)">
<path d="M666.667 535.333C608.889 535.333 560 570.889 542.222 624.222H355.556C355.556 593.111 346.667 566.444 333.333 544.222L648.889 219.778C662.222 219.778 675.556 224.222 688.889 224.222C751.111 224.222 800 175.333 800 113.111C800 50.8889 751.111 2 688.889 2C626.667 2 577.778 50.8889 577.778 113.111C577.778 126.444 582.222 144.222 586.667 157.556L275.556 477.556C248.889 455.333 213.333 446.444 177.778 446.444V259.778C231.111 242 266.667 193.111 266.667 135.333C266.667 59.7778 208.889 2 133.333 2C57.7778 2 0 59.7778 0 135.333C0 193.111 35.5556 242 88.8889 259.778V468.667C35.5556 499.778 0 557.556 0 619.778C0 717.556 80 797.556 177.778 797.556C244.444 797.556 302.222 762 328.889 708.667H537.778C555.556 757.556 604.444 797.556 662.222 797.556C733.333 797.556 795.556 739.778 795.556 664.222C800 593.111 737.778 535.333 666.667 535.333Z" fill="#EFF8FF"/>
</g>
<defs>
<clipPath id="clip0_12_18">
<rect width="800" height="800" fill="white"/>
</clipPath>
</defs>
</svg>
