<svg width="800" height="800" viewBox="0 0 800 800" fill="none" xmlns="http://www.w3.org/2000/svg">
<path d="M404.896 477.7C391.154 484.02 376.099 492.257 345.96 508.816C334.533 515.251 322.592 521.686 311.479 527.749C310.707 526.977 309.908 526.004 309.136 525.204C249.515 461.427 139.243 416.383 143.928 330.727C145.671 299.525 156.384 217.616 355.702 118.147C519.738 37.2108 650.265 59.6327 672.805 109.367C705.201 180.265 602.842 312.195 433.435 331.328C414.686 335.135 395.321 334.675 376.773 329.982C358.225 325.289 340.968 316.484 326.277 304.215C317.307 294.463 315.964 293.891 312.65 295.836C307.194 298.696 310.707 307.533 312.65 312.595C319.112 324.308 327.854 334.605 338.36 342.877C348.865 351.149 360.921 357.229 373.814 360.757C440.48 375.182 509.988 368.29 572.532 341.052C675.204 301.27 755.366 190.676 731.883 97.956C708.315 3.94956 552.448 -27.0523 404.981 25.3992C312.629 56.5553 227.305 105.601 153.87 169.741C72.6231 245.815 59.7676 311.937 65.0241 339.622C83.936 437.918 219.29 501.895 273.569 549.284C270.712 550.857 268.313 552.144 266.17 553.374C239.088 566.844 135.844 620.869 110.104 678.011C80.8792 742.76 114.789 789.177 137.186 795.411C170.939 803.505 206.374 800.845 238.543 787.801C270.712 774.757 298.008 751.981 316.621 722.654C332.427 698.335 342.133 670.555 344.913 641.675C347.693 612.795 343.466 583.671 332.59 556.777C339.007 551.654 345.85 547.09 353.045 543.135C366.872 534.956 380.042 526.891 391.726 520.656C431.732 501.897 475.39 492.237 519.567 492.371C612.298 503.296 630.61 561.21 627.096 585.606C625.452 594.261 621.976 602.463 616.9 609.661C611.825 616.858 605.268 622.884 597.671 627.332C591.244 631.422 589.101 632.795 589.672 635.712C590.444 640.002 593.558 639.802 599.014 639.029C612.946 634.621 625.221 626.097 634.225 614.577C643.229 603.057 648.542 589.079 649.465 574.48C652.322 517.282 597.843 454.534 501.398 455.106C472.519 455.156 443.929 460.859 417.237 471.894C412.952 473.667 408.79 475.574 404.753 477.614L404.896 477.7ZM267.056 701.891C236.26 735.438 193.408 748.108 174.896 737.383C154.898 725.943 162.812 676.323 200.607 640.831C222.992 620.64 247.186 602.556 272.884 586.807C277.369 583.947 283.997 580.172 291.967 575.367C293.338 574.595 294.11 574.194 294.11 574.194L298.795 571.335C305.535 593.96 306.149 617.972 300.572 640.912C294.995 663.853 283.428 684.897 267.056 701.891Z" fill="#EFF8FF"/>
</svg>
