<svg width="800" height="800" viewBox="0 0 800 800" fill="none" xmlns="http://www.w3.org/2000/svg">
<g clip-path="url(#clip0_22_86)">
<path d="M45.5737 570.137C45.5737 603.128 72.413 629.967 105.404 629.967C116.953 629.967 127.742 626.669 136.897 620.976L340.244 738.425C340.227 739.006 340.199 739.586 340.199 740.171C340.199 773.161 367.038 800.001 400.029 800.001C433.02 800.001 459.859 773.162 459.859 740.171C459.859 739.548 459.832 738.932 459.812 738.314L663.115 620.983C672.266 626.67 683.052 629.966 694.597 629.966C727.588 629.966 754.429 603.125 754.429 570.136C754.429 547.37 741.644 527.537 722.881 517.428L722.921 282.653C741.664 272.538 754.43 252.715 754.43 229.966C754.43 229.949 754.429 229.934 754.429 229.917C754.429 229.9 754.43 229.884 754.43 229.867C754.43 196.877 727.589 170.037 694.598 170.037C683.038 170.037 672.239 173.343 663.078 179.045L459.836 61.655C459.841 61.3374 459.861 59.9766 459.861 59.8302C459.861 26.8393 433.02 0 400.031 0C367.041 0 340.2 26.8393 340.2 59.8302C340.2 59.9766 340.219 61.323 340.224 61.6354L136.86 179C127.715 173.323 116.939 170.034 105.405 170.034C72.4143 170.034 45.575 196.874 45.575 229.864C45.575 229.881 45.5763 229.897 45.5763 229.914C45.5763 229.931 45.575 229.947 45.575 229.964C45.575 252.706 58.3319 272.523 77.0653 282.641L77.0261 517.477C58.3123 527.603 45.5737 547.41 45.5737 570.137ZM663.115 280.812C664.143 281.451 665.188 282.066 666.256 282.642L666.215 517.478C647.504 527.603 634.766 547.409 634.766 570.136C634.766 570.725 634.793 571.309 634.81 571.895L431.429 689.272C430.425 688.65 429.403 688.052 428.361 687.489V452.683C447.099 442.565 459.859 422.747 459.859 400.001C459.859 399.377 459.832 398.761 459.812 398.143L663.115 280.812ZM367.859 111.107C377.157 117.062 388.193 120.532 400.029 120.532C411.859 120.532 422.888 117.067 432.182 111.118L634.81 228.151C634.794 228.722 634.767 229.289 634.767 229.864C634.767 229.881 634.768 229.897 634.768 229.914C634.768 229.931 634.767 229.947 634.767 229.964C634.767 230.553 634.794 231.138 634.811 231.723L431.431 349.101C422.296 343.445 411.54 340.171 400.031 340.171C388.481 340.171 377.692 343.469 368.538 349.161L165.191 231.714C165.208 231.132 165.235 230.553 165.235 229.968C165.235 229.951 165.234 229.935 165.234 229.918C165.234 229.901 165.235 229.885 165.235 229.868C165.235 229.268 165.208 228.674 165.19 228.076L367.859 111.107ZM133.727 282.653C134.805 282.071 135.86 281.451 136.897 280.807L340.244 398.256C340.227 398.837 340.199 399.416 340.199 400.002C340.199 422.748 352.96 442.567 371.698 452.684V687.49C370.623 688.07 369.572 688.689 368.536 689.333L165.19 571.885C165.207 571.303 165.234 570.724 165.234 570.138C165.234 547.372 152.45 527.539 133.686 517.431L133.727 282.653Z" fill="#EFF8FF"/>
</g>
<defs>
<clipPath id="clip0_22_86">
<rect width="800" height="800" fill="white"/>
</clipPath>
</defs>
</svg>
