<svg width="513" height="500" viewBox="0 0 513 500" fill="none" xmlns="http://www.w3.org/2000/svg">
<g clip-path="url(#clip0_22_89)">
<path d="M421.72 0H90.75C40.6302 0 0 40.6302 0 90.75V408.91C0 459.03 40.6302 499.66 90.75 499.66H421.72C471.84 499.66 512.47 459.03 512.47 408.91V90.75C512.47 40.6302 471.84 0 421.72 0Z" fill="#EFF8FF"/>
<path d="M94.1499 349.71V131.06C94.1167 130.732 94.1488 130.401 94.2441 130.086C94.3393 129.77 94.496 129.477 94.7051 129.222C94.9142 128.968 95.1716 128.757 95.4625 128.602C95.7533 128.447 96.0719 128.351 96.3999 128.32H96.5599C99.9899 128.09 105.04 127.92 111.68 127.8C118.32 127.68 126.12 127.58 135.06 127.46C144 127.34 153.51 127.29 163.59 127.29C191.097 127.29 213.903 131.987 232.01 141.38C249.17 149.884 263.368 163.364 272.75 180.06C281.803 196.447 286.327 215.297 286.32 236.61C286.598 251.519 284.228 266.359 279.32 280.44C274.991 292.493 268.437 303.626 260 313.26C252.032 322.29 242.691 330.008 232.32 336.13C222.038 342.193 210.918 346.708 199.32 349.53C187.962 352.358 176.304 353.801 164.6 353.83H139C129.953 353.83 121.533 353.773 113.74 353.66C105.947 353.547 100.1 353.373 96.1999 353.14C94.8399 353.14 94.1499 352 94.1499 349.71ZM141.59 169.56V311.89C144.11 311.89 146.403 311.947 148.47 312.06L154.83 312.4C157 312.52 159.47 312.58 162.22 312.58C172.619 312.71 182.964 311.08 192.82 307.76C201.644 304.765 209.687 299.834 216.36 293.33C223.08 286.624 228.245 278.523 231.49 269.6C235.19 259.344 236.996 248.502 236.82 237.6C237.03 227.336 235.279 217.127 231.66 207.52C228.438 199.231 223.317 191.812 216.71 185.86C209.955 179.909 201.973 175.519 193.33 173C183.674 170.168 173.652 168.78 163.59 168.88C159.01 168.88 155.17 168.93 152.08 169.05C148.99 169.17 145.49 169.34 141.59 169.56Z" fill="#030814"/>
<path d="M421.43 227C414.977 223.677 408.105 221.242 401 219.76C393.154 217.956 385.131 217.03 377.08 217C372.727 216.889 368.382 217.411 364.18 218.55C361.51 219.15 359.137 220.672 357.48 222.85C356.358 224.591 355.761 226.619 355.76 228.69C355.826 230.699 356.55 232.631 357.82 234.19C359.831 236.538 362.284 238.468 365.04 239.87C369.944 242.493 374.996 244.831 380.17 246.87C391.709 250.75 402.733 256.018 413 262.56C419.997 266.972 425.788 273.054 429.85 280.26C433.268 287.082 434.984 294.631 434.85 302.26C435.059 312.337 432.18 322.237 426.6 330.63C420.628 339.146 412.336 345.768 402.71 349.71C392.236 354.29 379.333 356.58 364 356.58C354.264 356.677 344.544 355.756 335 353.83C327.793 352.469 320.799 350.159 314.2 346.96C313.449 346.57 312.825 345.975 312.4 345.243C311.975 344.512 311.767 343.675 311.8 342.83V305.7C311.756 305.336 311.814 304.968 311.965 304.635C312.117 304.301 312.357 304.016 312.66 303.81C312.955 303.645 313.294 303.572 313.631 303.603C313.968 303.633 314.289 303.764 314.55 303.98C322.411 308.829 331.005 312.372 340 314.47C348.179 316.521 356.568 317.615 365 317.73C373 317.73 378.903 316.7 382.71 314.64C384.418 313.857 385.862 312.596 386.869 311.01C387.875 309.423 388.4 307.579 388.38 305.7C388.38 302.733 386.663 299.87 383.23 297.11C379.797 294.35 372.797 291.017 362.23 287.11C351.437 283.352 341.204 278.148 331.81 271.64C325.093 266.962 319.56 260.781 315.65 253.59C312.262 246.818 310.548 239.332 310.65 231.76C310.675 222.66 313.219 213.744 318 206C323.401 197.452 331.159 190.648 340.34 186.41C350.42 181.37 363.026 178.85 378.16 178.85C387.019 178.774 395.871 179.406 404.63 180.74C410.799 181.538 416.821 183.222 422.51 185.74C422.976 185.874 423.405 186.114 423.763 186.442C424.12 186.77 424.396 187.177 424.57 187.63C424.802 188.47 424.917 189.338 424.91 190.21V224.93C424.937 225.332 424.86 225.735 424.684 226.098C424.509 226.461 424.242 226.772 423.91 227C423.541 227.242 423.11 227.371 422.67 227.371C422.229 227.371 421.798 227.242 421.43 227Z" fill="#030814"/>
</g>
<defs>
<clipPath id="clip0_22_89">
<rect width="512.47" height="499.66" fill="white"/>
</clipPath>
</defs>
</svg>
