<svg width="800" height="800" viewBox="0 0 800 800" fill="none" xmlns="http://www.w3.org/2000/svg">
<path d="M593.506 43.9112C593.506 19.5828 566.156 19.5825 554 22.6236C571.017 9.24291 590.974 12.4871 598.064 16.5418L762.409 96.7961C778.067 104.443 788 120.354 788 137.791V665.747C788 683.417 777.803 699.498 761.826 707.021L607.183 779.846C596.544 784.405 573.449 795.659 554 779.843C578.312 784.408 591.48 767.175 593.506 755.517V43.9112Z" fill="url(#paint0_linear_23_99)"/>
<path d="M556.637 21.9423C569.478 19.4037 594 20.581 594 43.6657V225.371L98.0287 600.719C89.3595 607.281 77.159 606.19 69.7752 598.198L18.6582 542.864C10.6503 534.197 11.2106 520.628 19.9057 512.657L554.672 22.3809L556.637 21.9423Z" fill="url(#paint1_linear_23_99)"/>
<path d="M594 577.039L98.0287 201.286C89.3595 194.718 77.159 195.808 69.7752 203.809L18.6582 259.202C10.6503 267.879 11.2106 281.463 19.9057 289.445L554.672 780.248C578.873 784.814 591.983 767.565 594 755.896V577.039Z" fill="url(#paint2_linear_23_99)"/>
<defs>
<linearGradient id="paint0_linear_23_99" x1="671.001" y1="13" x2="671.001" y2="788" gradientUnits="userSpaceOnUse">
<stop stop-color="#E3EBF1"/>
<stop offset="1" stop-color="#DFE7ED"/>
</linearGradient>
<linearGradient id="paint1_linear_23_99" x1="594" y1="110.56" x2="41.0892" y2="574.49" gradientUnits="userSpaceOnUse">
<stop stop-color="#A8AEB3"/>
<stop offset="0.270551" stop-color="#ACB2B7"/>
<stop offset="0.421376" stop-color="#AAB0B5"/>
<stop offset="0.618197" stop-color="#A2A8AC"/>
<stop offset="0.855344" stop-color="#A5AAAF"/>
<stop offset="1" stop-color="#A3A9AD"/>
</linearGradient>
<linearGradient id="paint2_linear_23_99" x1="44.9583" y1="233.863" x2="596.794" y2="690.114" gradientUnits="userSpaceOnUse">
<stop stop-color="#C5CDD2"/>
<stop offset="1" stop-color="#B9C0C5"/>
</linearGradient>
</defs>
</svg>
